<svg xmlns="http://www.w3.org/2000/svg" width="74" height="76" viewBox="0 0 74 76" fill="none">
  <g filter="url(#filter0_d_705_9426)">
    <path d="M20.6004 31.8887C20.3817 32.4834 20.5663 33.1465 21.0379 33.5703L23.9979 36.2637C23.9227 36.8311 23.8817 37.4121 23.8817 38C23.8817 38.5879 23.9227 39.1689 23.9979 39.7363L21.0379 42.4297C20.5663 42.8535 20.3817 43.5166 20.6004 44.1113C20.9012 44.9248 21.2635 45.7041 21.6805 46.4561L22.0018 47.0098C22.453 47.7617 22.9588 48.4727 23.5126 49.1426C23.9159 49.6348 24.5858 49.7988 25.1874 49.6074L28.995 48.3975C29.911 49.1016 30.9227 49.6895 32.0028 50.1338L32.8573 54.0371C32.994 54.6592 33.4725 55.1514 34.1014 55.2539C35.0448 55.4111 36.0155 55.4932 37.0067 55.4932C37.9979 55.4932 38.9686 55.4111 39.912 55.2539C40.5409 55.1514 41.0194 54.6592 41.1561 54.0371L42.0106 50.1338C43.0907 49.6895 44.1024 49.1016 45.0184 48.3975L48.8192 49.6143C49.4208 49.8057 50.0907 49.6348 50.494 49.1494C51.0477 48.4795 51.5536 47.7686 52.0047 47.0166L52.326 46.4629C52.743 45.7109 53.1053 44.9316 53.4061 44.1182C53.6249 43.5234 53.4403 42.8604 52.9686 42.4365L50.0086 39.7432C50.0838 39.1689 50.1249 38.5879 50.1249 38C50.1249 37.4121 50.0838 36.8311 50.0086 36.2637L52.9686 33.5703C53.4403 33.1465 53.6249 32.4834 53.4061 31.8887C53.1053 31.0752 52.743 30.2959 52.326 29.5439L52.0047 28.9902C51.5536 28.2383 51.0477 27.5273 50.494 26.8574C50.0907 26.3652 49.4208 26.2012 48.8192 26.3926L45.0116 27.6025C44.0956 26.8984 43.0838 26.3105 42.0038 25.8662L41.1493 21.9629C41.0126 21.3408 40.534 20.8486 39.9051 20.7461C38.9618 20.582 37.9911 20.5 36.9999 20.5C36.0086 20.5 35.0379 20.582 34.0946 20.7393C33.4657 20.8418 32.9872 21.334 32.8504 21.9561L31.996 25.8594C30.9159 26.3037 29.9042 26.8916 28.9881 27.5957L25.1805 26.3857C24.579 26.1943 23.909 26.3652 23.5057 26.8506C22.952 27.5205 22.4461 28.2314 21.995 28.9834L21.6737 29.5371C21.2567 30.2891 20.8944 31.0684 20.5936 31.8818L20.6004 31.8887ZM36.9999 43.4688C35.5495 43.4688 34.1585 42.8926 33.1329 41.867C32.1073 40.8414 31.5311 39.4504 31.5311 38C31.5311 36.5496 32.1073 35.1586 33.1329 34.133C34.1585 33.1074 35.5495 32.5312 36.9999 32.5312C38.4503 32.5312 39.8413 33.1074 40.8669 34.133C41.8924 35.1586 42.4686 36.5496 42.4686 38C42.4686 39.4504 41.8924 40.8414 40.8669 41.867C39.8413 42.8926 38.4503 43.4688 36.9999 43.4688Z" fill="white"/>
  </g>
  <defs>
    <filter id="filter0_d_705_9426" x="-0.5" y="0.5" width="75" height="75" filterUnits="userSpaceOnUse" color-interpolation-filters="sRGB">
      <feFlood flood-opacity="0" result="BackgroundImageFix"/>
      <feColorMatrix in="SourceAlpha" type="matrix" values="0 0 0 0 0 0 0 0 0 0 0 0 0 0 0 0 0 0 127 0" result="hardAlpha"/>
      <feOffset/>
      <feGaussianBlur stdDeviation="10"/>
      <feComposite in2="hardAlpha" operator="out"/>
      <feColorMatrix type="matrix" values="0 0 0 0 1 0 0 0 0 1 0 0 0 0 1 0 0 0 0.15 0"/>
      <feBlend mode="normal" in2="BackgroundImageFix" result="effect1_dropShadow_705_9426"/>
      <feBlend mode="normal" in="SourceGraphic" in2="effect1_dropShadow_705_9426" result="shape"/>
    </filter>
  </defs>
</svg>